<svg width="50" height="71" viewBox="0 0 50 71" fill="none" xmlns="http://www.w3.org/2000/svg">
<path d="M29.3721 39.4144L25.4952 40.3604C25.4952 40.3604 23.6748 41.0562 20.0999 40.9872C16.5251 40.9182 13.0305 39.9152 9.96319 38.0778C6.8959 36.2404 4.36265 33.6325 2.61503 30.5132C0.867404 27.3939 -0.0337826 23.8716 0.000968286 20.2963C0.0357192 16.721 1.0052 13.2169 2.81312 10.1321C4.62105 7.04739 7.20451 4.48927 10.3069 2.71184C13.4094 0.934404 16.9228 -0.000490871 20.4983 1.93353e-07L20.4969 10.0879C18.6813 10.0876 16.8972 10.5624 15.3217 11.465C13.7463 12.3675 12.4345 13.6665 11.5164 15.233C10.5983 16.7994 10.106 18.5788 10.0884 20.3943C10.0707 22.2099 10.5284 23.9985 11.4158 25.5825C12.3032 27.1665 13.5896 28.4907 15.1472 29.4238C16.7048 30.3568 18.4793 30.8661 20.2946 30.9012C22.1099 30.9362 23.9028 30.4957 25.4952 29.6235C27.0877 28.7513 28.4242 27.4777 29.3721 25.9291V39.4144Z" fill="#202020"/>
<path d="M20.6461 0.15H28.6868L20.6461 9.67971V0.15Z" fill="#202020" stroke="#202020" stroke-width="0.3"/>
<path d="M20.8105 70V23.4594L29.6394 11.3513V57.8919L20.8105 70Z" fill="#202020" stroke="#202020" stroke-width="0.3"/>
<path d="M45.4456 47.4039L45.3965 56.8645L31.0458 49.8835L31.0949 40.4229L45.4456 47.4039Z" fill="#202020" stroke="#202020" stroke-width="0.3"/>
<rect x="26.3008" y="29.5952" width="9.79345" height="9.08069" fill="#202020"/>
</svg>
